<svg xmlns="http://www.w3.org/2000/svg" xmlns:xlink="http://www.w3.org/1999/xlink"><symbol id="icon-check" viewBox="0 0 512 512">
<polygon fill="#446080" points="47.222,263.447 0,310.669 149.961,460.631 172.222,413.408 149.961,366.186 "/>
<polygon fill="#324860" points="464.778,51.369 149.961,366.186 149.961,460.631 512,98.592 "/>
</symbol><symbol id="icon-close" viewBox="0 0 20.514 20.512">
  <polygon points="20.513,1.414 19.099,0 10.256,8.842 1.414,0 0,1.414 8.842,10.256 0,19.098 1.414,20.512 10.256,11.67 19.099,20.512 20.513,19.098 11.671,10.256 "/>
</symbol><symbol id="icon-document" viewBox="0 0 258.141 258.141">
<g>
	<path d="M66.36,46.893h100.422c2.209,0,4-1.791,4-4s-1.791-4-4-4H66.36c-2.209,0-4,1.791-4,4S64.151,46.893,66.36,46.893z"/>
	<path d="M66.36,69.698h100.422c2.209,0,4-1.791,4-4s-1.791-4-4-4H66.36c-2.209,0-4,1.791-4,4S64.151,69.698,66.36,69.698z"/>
	<path d="M66.36,92.503h100.422c2.209,0,4-1.791,4-4s-1.791-4-4-4H66.36c-2.209,0-4,1.791-4,4S64.151,92.503,66.36,92.503z"/>
	<path d="M66.36,115.308h100.422c2.209,0,4-1.791,4-4s-1.791-4-4-4H66.36c-2.209,0-4,1.791-4,4S64.151,115.308,66.36,115.308z"/>
	<path d="M66.36,138.113h100.422c2.209,0,4-1.791,4-4s-1.791-4-4-4H66.36c-2.209,0-4,1.791-4,4S64.151,138.113,66.36,138.113z"/>
	<path d="M222.917,167.082c-1.133-1.19-2.704-1.863-4.346-1.863c-0.025,0-0.05,0-0.074,0c-2.695,0-5.21-1.078-7.083-3.037
		c-1.908-1.995-2.883-4.611-2.747-7.368c0.081-1.641-0.514-3.243-1.646-4.433c-1.133-1.19-2.704-1.863-4.346-1.863h-3.103V6
		c0-3.313-2.687-6-6-6h-154c-3.313,0-6,2.687-6,6v210.617c0,3.314,2.687,6,6,6h94.546c7.439,12.401,18.374,24.604,34.43,34.616
		c0.972,0.606,2.073,0.909,3.175,0.909s2.203-0.303,3.175-0.909c40.553-25.287,48.524-64.542,49.666-85.69
		C224.651,169.893,224.056,168.279,222.917,167.082z M171.721,244.988c-30.145-20.383-38.422-49.798-40.426-68.701
		c3.539-1.071,6.763-3.046,9.408-5.812c2.673-2.795,4.541-6.25,5.451-9.958h51.135c0.911,3.708,2.778,7.162,5.451,9.958
		c2.646,2.766,5.869,4.741,9.408,5.813C210.143,195.19,201.866,224.605,171.721,244.988z M45.571,210.617V12h142v136.518h-46.801
		c-1.643,0-3.213,0.673-4.346,1.863c-0.687,0.722-1.172,1.596-1.433,2.538H66.36c-2.209,0-4,1.791-4,4s1.791,4,4,4h66.683
		c-0.304,0.441-0.635,0.867-1.013,1.263c-1.874,1.96-4.388,3.037-7.083,3.037c-0.015,0-0.031,0-0.046,0
		c-1.657-0.019-3.235,0.667-4.374,1.863s-1.734,2.811-1.645,4.46c0.072,1.325,0.17,2.722,0.302,4.182H66.36c-2.209,0-4,1.791-4,4
		s1.791,4,4,4h53.826c1.288,8.085,3.63,17.352,7.766,26.893H45.571z"/>
	<path d="M171.721,169.169c-14.08,0-25.493,11.414-25.493,25.493s11.414,25.493,25.493,25.493s25.493-11.414,25.493-25.493
		S185.801,169.169,171.721,169.169z M178.08,186.38c1.563-1.563,4.095-1.562,5.657,0c1.562,1.562,1.562,4.095,0,5.657
		l-12.368,12.368c-0.75,0.75-1.768,1.172-2.829,1.172s-2.078-0.421-2.829-1.171l-6.006-6.006c-1.562-1.563-1.562-4.095,0-5.657
		c1.563-1.562,4.095-1.562,5.657,0l3.178,3.178L178.08,186.38z"/>
</g>
</symbol><symbol id="icon-mail" viewBox="0 0 32 32"><path d="M28 5H4a4 4 0 0 0-4 4v13a4 4 0 0 0 4 4h24a4 4 0 0 0 4-4V9a4 4 0 0 0-4-4zM2 10.25l6.999 5.25L2 20.75v-10.5zM30 22c0 1.104-.898 2-2 2H4c-1.103 0-2-.896-2-2l7.832-5.875 4.368 3.277a3 3 0 0 0 3.599 0l4.369-3.277L30 22zm0-1.25l-7-5.25 7-5.25v10.5zm-12.801-2.148c-.35.263-.763.4-1.199.4s-.851-.139-1.2-.4L10.665 15.5l-.833-.625L2 9.001V9c0-1.103.897-2 2-2h24c1.102 0 2 .897 2 2l-12.801 9.602z"/></symbol><symbol id="icon-phone" viewBox="0 0 24.829 24.333"><path d="M17.321 24.333h-1.115c-4.904-.58-8.497-2.857-11.11-5.772C2.473 15.637.402 11.875 0 6.817V5.459c.091-.921.544-1.55 1.067-2.086.65-.666 1.63-1.522 2.522-1.553.659-.022 1.78.451 2.232 1.066.388.53.595 1.59.775 2.378.185.797.6 1.95.485 2.717-.176 1.196-1.764 1.703-2.231 2.572 1.551 3.721 4.089 6.456 7.472 8.345.847-.465 1.595-1.864 2.767-1.892.428-.012.972.209 1.406.34.477.143.891.326 1.311.484.705.266 1.957.621 2.378 1.213.433.61.681 1.608.581 2.231-.194 1.234-2.227 2.603-3.444 3.059zM12.529 1.528c5.949 0 10.771 4.822 10.771 10.771h1.529C24.829 5.507 19.323 0 12.529 0v1.528z"/><path d="M12.529 9.327v1.552a1.42 1.42 0 0 1 1.421 1.42h1.553a2.973 2.973 0 0 0-2.974-2.972zm0-3.081a6.054 6.054 0 0 1 6.056 6.054h1.588a7.642 7.642 0 0 0-7.644-7.641v1.587z"/></symbol><symbol id="icon-quality" viewBox="0 0 453.487 453.487">
<g>
	<path d="M390.523,159.76l-24.017-31.377l5.13-39.185c0.588-4.485-1.91-8.807-6.09-10.537l-36.51-15.116l-15.115-36.51
		c-1.729-4.18-6.047-6.675-10.537-6.09l-39.186,5.13L232.822,2.059c-3.588-2.745-8.568-2.745-12.156,0l-31.377,24.017l-39.185-5.13
		c-4.484-0.586-8.807,1.91-10.537,6.09l-15.116,36.51l-36.51,15.115c-4.18,1.731-6.678,6.052-6.09,10.538l5.13,39.186L62.964,159.76
		c-2.746,3.587-2.746,8.569,0,12.156l24.017,31.377l-5.13,39.185c-0.588,4.485,1.91,8.807,6.09,10.537l36.51,15.115l15.115,36.511
		c1.339,3.237,4.232,5.459,7.554,6.026v132.819c0,3.647,1.985,7.005,5.182,8.763c3.194,1.757,7.095,1.635,10.175-0.318
		l64.268-40.764l64.268,40.764c1.632,1.035,3.492,1.556,5.356,1.556c1.656,0,3.315-0.411,4.818-1.237
		c3.196-1.758,5.182-5.116,5.182-8.763V310.666c3.316-0.57,6.214-2.79,7.553-6.024l15.116-36.51l36.51-15.115
		c4.18-1.731,6.678-6.052,6.09-10.538l-5.13-39.186l24.017-31.377C393.269,168.33,393.269,163.347,390.523,159.76z M232.1,390.882
		c-3.27-2.074-7.443-2.074-10.713,0l-54.268,34.421V308.504l22.169-2.902l31.377,24.017c1.794,1.373,3.936,2.059,6.078,2.059
		s4.284-0.687,6.078-2.059l31.377-24.017l22.169,2.903v116.798L232.1,390.882z M348.115,194.418
		c-1.608,2.101-2.318,4.753-1.975,7.376l4.67,35.677l-33.253,13.767c-2.451,1.015-4.399,2.962-5.414,5.414l-13.768,33.253
		l-35.677-4.671c-2.622-0.342-5.275,0.367-7.376,1.975l-28.579,21.875l-28.579-21.875c-1.754-1.343-3.893-2.059-6.078-2.059
		c-0.432,0-0.865,0.028-1.298,0.084l-35.678,4.671l-13.767-33.254c-1.015-2.452-2.963-4.399-5.414-5.415l-33.253-13.767l4.67-35.676
		c0.344-2.623-0.366-5.275-1.975-7.376l-21.875-28.58l21.875-28.579c1.608-2.101,2.318-4.753,1.975-7.376l-4.67-35.677L135.93,80.44
		c2.451-1.015,4.399-2.962,5.414-5.414l13.768-33.253l35.677,4.671c2.624,0.344,5.275-0.367,7.376-1.975l28.579-21.875
		l28.579,21.875c2.101,1.608,4.755,2.319,7.376,1.975l35.678-4.671l13.767,33.253c1.015,2.452,2.962,4.399,5.414,5.414
		l33.253,13.768l-4.67,35.676c-0.344,2.623,0.366,5.275,1.975,7.376l21.875,28.579L348.115,194.418z"/>
	<path d="M165.661,101.322c2.232,0,4.479-0.744,6.339-2.271c15.373-12.618,34.814-19.567,54.744-19.567c5.522,0,10-4.477,10-10
		s-4.478-10-10-10c-24.544,0-48.492,8.562-67.434,24.107c-4.269,3.504-4.889,9.805-1.385,14.074
		C159.902,100.075,162.77,101.322,165.661,101.322z"/>
	<path d="M262.403,65.613c-5.204-1.85-10.922,0.867-12.774,6.069c-1.851,5.203,0.866,10.922,6.069,12.773
		c34.333,12.215,57.4,44.921,57.4,81.383c0,47.616-38.738,86.354-86.354,86.354s-86.354-38.738-86.354-86.354
		c0-16.938,4.899-33.333,14.168-47.414c3.037-4.613,1.759-10.814-2.854-13.851c-4.612-3.036-10.814-1.76-13.851,2.854
		c-11.425,17.355-17.463,37.553-17.463,58.411c0,58.644,47.71,106.354,106.354,106.354s106.354-47.71,106.354-106.354
		C333.098,120.936,304.688,80.658,262.403,65.613z"/>
</g>
</symbol><symbol id="icon-review-arrow-left" viewBox="0 0 21.706 41.719"><path fill="#ffffff" d="M2.045 20.859L21.458 1.446A.847.847 0 0 0 20.261.248L.248 20.261a.846.846 0 0 0 0 1.197l20.013 20.013a.843.843 0 0 0 1.198 0 .847.847 0 0 0 0-1.198L2.045 20.859z"/></symbol><symbol id="icon-review-arrow-right" viewBox="0 0 21.706 41.719"><path fill="#ffffff" d="M19.661 20.859L.248 1.446A.847.847 0 0 1 1.445.248L21.458 20.26c.33.33.33.867 0 1.197L1.445 41.471a.843.843 0 0 1-1.198 0 .847.847 0 0 1 0-1.198l19.414-19.414z"/></symbol><symbol id="icon-support" viewBox="0 0 384.857 384.857">
<path d="M215.814,151.558c-18.882,0-34.244,15.361-34.244,34.243c0,18.882,15.362,34.243,34.244,34.243s34.243-15.361,34.243-34.243
	C250.057,166.919,234.696,151.558,215.814,151.558z M215.814,202.043c-8.957,0-16.244-7.287-16.244-16.243
	c0-8.956,7.287-16.243,16.244-16.243s16.243,7.287,16.243,16.243C232.057,194.757,224.771,202.043,215.814,202.043z
	 M304.122,203.784l-11.629-8.425c0.391-3.164,0.587-6.359,0.587-9.551c0-3.146-0.19-6.291-0.568-9.403l11.632-8.428
	c2.973-1.937,7.028-6.501,5.086-16.565c-0.931-4.817-3.158-10.442-6.272-15.835c-8.63-14.951-19.087-21.493-27.438-17.245
	l-13.091,5.85c-5.099-3.869-10.614-7.063-16.487-9.546l-1.471-14.172c-0.445-9.393-11.339-15.199-28.656-15.199
	c-17.267,0-28.164,5.79-28.654,15.152l-1.476,14.22c-5.874,2.484-11.39,5.679-16.486,9.547l-13.063-5.836
	c-3.164-1.605-9.145-2.834-16.887,3.879c-3.707,3.214-7.464,7.956-10.577,13.35c-8.63,14.945-9.071,27.271-1.221,32.382
	l11.666,8.451c-0.379,3.116-0.569,6.26-0.569,9.399c0,3.191,0.196,6.385,0.587,9.548l-11.671,8.456
	c-7.862,5.105-7.427,17.437,1.207,32.389c3.114,5.395,6.871,10.136,10.578,13.35c7.744,6.714,13.725,5.484,16.887,3.878
	l13.196-5.895c5.057,3.82,10.521,6.978,16.337,9.439l1.491,14.386c0.487,9.365,11.386,15.155,28.654,15.155
	c17.317,0,28.211-5.806,28.656-15.2l1.488-14.341c5.815-2.461,11.28-5.619,16.336-9.438l13.225,5.91
	c8.352,4.251,18.808-2.295,27.437-17.243C311.616,221.205,312.036,208.867,304.122,203.784z M273.929,174.127
	c0.764,3.814,1.15,7.744,1.15,11.681c0,3.971-0.396,7.945-1.175,11.81c-0.697,3.456,0.688,7,3.542,9.068l14.121,10.23
	c-0.412,2.107-1.613,5.805-4.2,10.286c-2.588,4.481-5.189,7.37-6.809,8.78l-15.98-7.142c-3.216-1.438-6.977-0.866-9.62,1.463
	c-5.959,5.248-12.771,9.184-20.248,11.697c-3.342,1.124-5.72,4.095-6.084,7.602l-1.807,17.407
	c-2.031,0.696-5.833,1.505-11.006,1.505c-5.176,0-8.979-0.809-11.009-1.506l-1.805-17.405c-0.364-3.507-2.742-6.479-6.084-7.603
	c-7.476-2.513-14.288-6.449-20.25-11.698c-2.643-2.328-6.399-2.9-9.618-1.463l-15.983,7.14c-1.618-1.41-4.22-4.299-6.806-8.779
	c-2.588-4.482-3.789-8.18-4.2-10.287l14.12-10.231c2.854-2.068,4.238-5.611,3.542-9.066c-0.778-3.866-1.174-7.839-1.174-11.809
	c0-3.924,0.388-7.855,1.151-11.684c0.688-3.45-0.697-6.985-3.546-9.049l-14.094-10.209c0.411-2.107,1.612-5.806,4.201-10.289
	c2.585-4.479,5.187-7.368,6.805-8.778l15.862,7.087c3.226,1.44,6.992,0.862,9.635-1.477c5.987-5.298,12.84-9.267,20.368-11.795
	c3.343-1.123,5.722-4.095,6.086-7.603l1.789-17.239c2.03-0.697,5.833-1.506,11.009-1.506c5.173,0,8.975,0.808,11.006,1.505
	l1.789,17.24c0.364,3.508,2.744,6.48,6.088,7.603c7.525,2.526,14.378,6.494,20.369,11.794c2.644,2.339,6.41,2.917,9.635,1.476
	l15.859-7.087c1.618,1.41,4.221,4.299,6.808,8.781c2.587,4.479,3.788,8.176,4.2,10.284l-14.094,10.212
	C274.624,167.139,273.239,170.676,273.929,174.127z M321.874,46h-212.12c-34.221,0-61.825,27.754-61.825,61.976v175.411l-29,25.801
	V105.811C18.928,57.195,58.973,18,107.59,18h168.009c9.445,0,18.467,2.804,26.09,8.446c3.995,2.957,9.631,2.026,12.589-1.969
	c2.957-3.995,2.115-9.497-1.88-12.454C301.652,4.07,288.927,0,275.598,0H107.59C49.049,0,0.928,47.27,0.928,105.811v223.776
	c0,3.565,2.351,6.795,5.614,8.234c3.262,1.438,7.308,0.817,9.942-1.587l31.445-28.478v68.101c0,3.565,1.986,6.795,5.249,8.234
	c1.167,0.515,2.344,0.766,3.572,0.766c2.203,0,4.348-0.809,6.04-2.352l52.297-47.742c1.627-1.485,3.009-2.782,4.222-3.913
	c2.503-2.336,4.864-4.542,5.647-4.849c0.735-0.289,3.838-0.171,7.122-0.128c1.777,0.024,3.838,0.127,6.266,0.127h183.531
	c34.221,0,62.055-27.993,62.055-62.215V107.976C383.928,73.754,356.094,46,321.874,46z M365.928,263.785
	c0,24.297-19.759,44.215-44.055,44.215H138.343c-2.334,0-4.317-0.103-6.026-0.125c-13.266-0.178-15.396,0.617-25.296,9.852
	c-1.171,1.093-2.396,2.327-3.967,3.761l-37.125,33.97v-68.091c0-0.008,0-0.015,0-0.023V107.976C65.928,83.679,85.458,64,109.754,64
	h212.12c24.296,0,44.055,19.679,44.055,43.976V263.785z"/>
</symbol><symbol id="icon-uk" viewBox="0 0 60 30">
<clipPath id="t">
	<path d="M30,15 h30 v15 z v15 h-30 z h-30 v-15 z v-15 h30 z"/>
</clipPath>
<path d="M0,0 v30 h60 v-30 z" fill="#00247d"/>
<path d="M0,0 L60,30 M60,0 L0,30" stroke="#fff" stroke-width="6"/>
<path d="M0,0 L60,30 M60,0 L0,30" clip-path="url(#t)" stroke="#cf142b" stroke-width="4"/>
<path d="M30,0 v30 M0,15 h60" stroke="#fff" stroke-width="10"/>
<path d="M30,0 v30 M0,15 h60" stroke="#cf142b" stroke-width="6"/>
</symbol><symbol id="logo-github" viewBox="0 0 438.549 438.549">
<g>
	<path d="M409.132,114.573c-19.608-33.596-46.205-60.194-79.798-79.8C295.736,15.166,259.057,5.365,219.271,5.365
		c-39.781,0-76.472,9.804-110.063,29.408c-33.596,19.605-60.192,46.204-79.8,79.8C9.803,148.168,0,184.854,0,224.63
		c0,47.78,13.94,90.745,41.827,128.906c27.884,38.164,63.906,64.572,108.063,79.227c5.14,0.954,8.945,0.283,11.419-1.996
		c2.475-2.282,3.711-5.14,3.711-8.562c0-0.571-0.049-5.708-0.144-15.417c-0.098-9.709-0.144-18.179-0.144-25.406l-6.567,1.136
		c-4.187,0.767-9.469,1.092-15.846,1c-6.374-0.089-12.991-0.757-19.842-1.999c-6.854-1.231-13.229-4.086-19.13-8.559
		c-5.898-4.473-10.085-10.328-12.56-17.556l-2.855-6.57c-1.903-4.374-4.899-9.233-8.992-14.559
		c-4.093-5.331-8.232-8.945-12.419-10.848l-1.999-1.431c-1.332-0.951-2.568-2.098-3.711-3.429c-1.142-1.331-1.997-2.663-2.568-3.997
		c-0.572-1.335-0.098-2.43,1.427-3.289c1.525-0.859,4.281-1.276,8.28-1.276l5.708,0.853c3.807,0.763,8.516,3.042,14.133,6.851
		c5.614,3.806,10.229,8.754,13.846,14.842c4.38,7.806,9.657,13.754,15.846,17.847c6.184,4.093,12.419,6.136,18.699,6.136
		c6.28,0,11.704-0.476,16.274-1.423c4.565-0.952,8.848-2.383,12.847-4.285c1.713-12.758,6.377-22.559,13.988-29.41
		c-10.848-1.14-20.601-2.857-29.264-5.14c-8.658-2.286-17.605-5.996-26.835-11.14c-9.235-5.137-16.896-11.516-22.985-19.126
		c-6.09-7.614-11.088-17.61-14.987-29.979c-3.901-12.374-5.852-26.648-5.852-42.826c0-23.035,7.52-42.637,22.557-58.817
		c-7.044-17.318-6.379-36.732,1.997-58.24c5.52-1.715,13.706-0.428,24.554,3.853c10.85,4.283,18.794,7.952,23.84,10.994
		c5.046,3.041,9.089,5.618,12.135,7.708c17.705-4.947,35.976-7.421,54.818-7.421s37.117,2.474,54.823,7.421l10.849-6.849
		c7.419-4.57,16.18-8.758,26.262-12.565c10.088-3.805,17.802-4.853,23.134-3.138c8.562,21.509,9.325,40.922,2.279,58.24
		c15.036,16.18,22.559,35.787,22.559,58.817c0,16.178-1.958,30.497-5.853,42.966c-3.9,12.471-8.941,22.457-15.125,29.979
		c-6.191,7.521-13.901,13.85-23.131,18.986c-9.232,5.14-18.182,8.85-26.84,11.136c-8.662,2.286-18.415,4.004-29.263,5.146
		c9.894,8.562,14.842,22.077,14.842,40.539v60.237c0,3.422,1.19,6.279,3.572,8.562c2.379,2.279,6.136,2.95,11.276,1.995
		c44.163-14.653,80.185-41.062,108.068-79.226c27.88-38.161,41.825-81.126,41.825-128.906
		C438.536,184.851,428.728,148.168,409.132,114.573z"/>
</g>
</symbol><symbol id="logo-instagram" viewBox="0 0 512 512">
	<path d="M256,49.471c67.266,0,75.233.257,101.8,1.469,24.562,1.121,37.9,5.224,46.778,8.674a78.052,78.052,0,0,1,28.966,18.845,78.052,78.052,0,0,1,18.845,28.966c3.45,8.877,7.554,22.216,8.674,46.778,1.212,26.565,1.469,34.532,1.469,101.8s-0.257,75.233-1.469,101.8c-1.121,24.562-5.225,37.9-8.674,46.778a83.427,83.427,0,0,1-47.811,47.811c-8.877,3.45-22.216,7.554-46.778,8.674-26.56,1.212-34.527,1.469-101.8,1.469s-75.237-.257-101.8-1.469c-24.562-1.121-37.9-5.225-46.778-8.674a78.051,78.051,0,0,1-28.966-18.845,78.053,78.053,0,0,1-18.845-28.966c-3.45-8.877-7.554-22.216-8.674-46.778-1.212-26.564-1.469-34.532-1.469-101.8s0.257-75.233,1.469-101.8c1.121-24.562,5.224-37.9,8.674-46.778A78.052,78.052,0,0,1,78.458,78.458a78.053,78.053,0,0,1,28.966-18.845c8.877-3.45,22.216-7.554,46.778-8.674,26.565-1.212,34.532-1.469,101.8-1.469m0-45.391c-68.418,0-77,.29-103.866,1.516-26.815,1.224-45.127,5.482-61.151,11.71a123.488,123.488,0,0,0-44.62,29.057A123.488,123.488,0,0,0,17.3,90.982C11.077,107.007,6.819,125.319,5.6,152.134,4.369,179,4.079,187.582,4.079,256S4.369,333,5.6,359.866c1.224,26.815,5.482,45.127,11.71,61.151a123.489,123.489,0,0,0,29.057,44.62,123.486,123.486,0,0,0,44.62,29.057c16.025,6.228,34.337,10.486,61.151,11.71,26.87,1.226,35.449,1.516,103.866,1.516s77-.29,103.866-1.516c26.815-1.224,45.127-5.482,61.151-11.71a128.817,128.817,0,0,0,73.677-73.677c6.228-16.025,10.486-34.337,11.71-61.151,1.226-26.87,1.516-35.449,1.516-103.866s-0.29-77-1.516-103.866c-1.224-26.815-5.482-45.127-11.71-61.151a123.486,123.486,0,0,0-29.057-44.62A123.487,123.487,0,0,0,421.018,17.3C404.993,11.077,386.681,6.819,359.866,5.6,333,4.369,324.418,4.079,256,4.079h0Z"/>
	<path d="M256,126.635A129.365,129.365,0,1,0,385.365,256,129.365,129.365,0,0,0,256,126.635Zm0,213.338A83.973,83.973,0,1,1,339.974,256,83.974,83.974,0,0,1,256,339.973Z"/>
	<circle cx="390.476" cy="121.524" r="30.23"/>
</symbol><symbol id="logo-vk" viewBox="0 0 548.358 548.358">
<g>
	<path d="M545.451,400.298c-0.664-1.431-1.283-2.618-1.858-3.569c-9.514-17.135-27.695-38.167-54.532-63.102l-0.567-0.571
		l-0.284-0.28l-0.287-0.287h-0.288c-12.18-11.611-19.893-19.418-23.123-23.415c-5.91-7.614-7.234-15.321-4.004-23.13
		c2.282-5.9,10.854-18.36,25.696-37.397c7.807-10.089,13.99-18.175,18.556-24.267c32.931-43.78,47.208-71.756,42.828-83.939
		l-1.701-2.847c-1.143-1.714-4.093-3.282-8.846-4.712c-4.764-1.427-10.853-1.663-18.278-0.712l-82.224,0.568
		c-1.332-0.472-3.234-0.428-5.712,0.144c-2.475,0.572-3.713,0.859-3.713,0.859l-1.431,0.715l-1.136,0.859
		c-0.952,0.568-1.999,1.567-3.142,2.995c-1.137,1.423-2.088,3.093-2.848,4.996c-8.952,23.031-19.13,44.444-30.553,64.238
		c-7.043,11.803-13.511,22.032-19.418,30.693c-5.899,8.658-10.848,15.037-14.842,19.126c-4,4.093-7.61,7.372-10.852,9.849
		c-3.237,2.478-5.708,3.525-7.419,3.142c-1.715-0.383-3.33-0.763-4.859-1.143c-2.663-1.714-4.805-4.045-6.42-6.995
		c-1.622-2.95-2.714-6.663-3.285-11.136c-0.568-4.476-0.904-8.326-1-11.563c-0.089-3.233-0.048-7.806,0.145-13.706
		c0.198-5.903,0.287-9.897,0.287-11.991c0-7.234,0.141-15.085,0.424-23.555c0.288-8.47,0.521-15.181,0.716-20.125
		c0.194-4.949,0.284-10.185,0.284-15.705s-0.336-9.849-1-12.991c-0.656-3.138-1.663-6.184-2.99-9.137
		c-1.335-2.95-3.289-5.232-5.853-6.852c-2.569-1.618-5.763-2.902-9.564-3.856c-10.089-2.283-22.936-3.518-38.547-3.71
		c-35.401-0.38-58.148,1.906-68.236,6.855c-3.997,2.091-7.614,4.948-10.848,8.562c-3.427,4.189-3.905,6.475-1.431,6.851
		c11.422,1.711,19.508,5.804,24.267,12.275l1.715,3.429c1.334,2.474,2.666,6.854,3.999,13.134c1.331,6.28,2.19,13.227,2.568,20.837
		c0.95,13.897,0.95,25.793,0,35.689c-0.953,9.9-1.853,17.607-2.712,23.127c-0.859,5.52-2.143,9.993-3.855,13.418
		c-1.715,3.426-2.856,5.52-3.428,6.28c-0.571,0.76-1.047,1.239-1.425,1.427c-2.474,0.948-5.047,1.431-7.71,1.431
		c-2.667,0-5.901-1.334-9.707-4c-3.805-2.666-7.754-6.328-11.847-10.992c-4.093-4.665-8.709-11.184-13.85-19.558
		c-5.137-8.374-10.467-18.271-15.987-29.691l-4.567-8.282c-2.855-5.328-6.755-13.086-11.704-23.267
		c-4.952-10.185-9.329-20.037-13.134-29.554c-1.521-3.997-3.806-7.04-6.851-9.134l-1.429-0.859c-0.95-0.76-2.475-1.567-4.567-2.427
		c-2.095-0.859-4.281-1.475-6.567-1.854l-78.229,0.568c-7.994,0-13.418,1.811-16.274,5.428l-1.143,1.711
		C0.288,140.146,0,141.668,0,143.763c0,2.094,0.571,4.664,1.714,7.707c11.42,26.84,23.839,52.725,37.257,77.659
		c13.418,24.934,25.078,45.019,34.973,60.237c9.897,15.229,19.985,29.602,30.264,43.112c10.279,13.515,17.083,22.176,20.412,25.981
		c3.333,3.812,5.951,6.662,7.854,8.565l7.139,6.851c4.568,4.569,11.276,10.041,20.127,16.416
		c8.853,6.379,18.654,12.659,29.408,18.85c10.756,6.181,23.269,11.225,37.546,15.126c14.275,3.905,28.169,5.472,41.684,4.716h32.834
		c6.659-0.575,11.704-2.669,15.133-6.283l1.136-1.431c0.764-1.136,1.479-2.901,2.139-5.276c0.668-2.379,1-5,1-7.851
		c-0.195-8.183,0.428-15.558,1.852-22.124c1.423-6.564,3.045-11.513,4.859-14.846c1.813-3.33,3.859-6.14,6.136-8.418
		c2.282-2.283,3.908-3.666,4.862-4.142c0.948-0.479,1.705-0.804,2.276-0.999c4.568-1.522,9.944-0.048,16.136,4.429
		c6.187,4.473,11.99,9.996,17.418,16.56c5.425,6.57,11.943,13.941,19.555,22.124c7.617,8.186,14.277,14.271,19.985,18.274
		l5.708,3.426c3.812,2.286,8.761,4.38,14.853,6.283c6.081,1.902,11.409,2.378,15.984,1.427l73.087-1.14
		c7.229,0,12.854-1.197,16.844-3.572c3.998-2.379,6.373-5,7.139-7.851c0.764-2.854,0.805-6.092,0.145-9.712
		C546.782,404.25,546.115,401.725,545.451,400.298z"/>
</g>
</symbol></svg>