<svg xmlns="http://www.w3.org/2000/svg" xmlns:xlink="http://www.w3.org/1999/xlink"><symbol id="icon-arrow-up" viewBox="0 0 444.819 444.819">
<g>
	<path d="M433.968,278.657L248.387,92.79c-7.419-7.044-16.08-10.566-25.977-10.566c-10.088,0-18.652,3.521-25.697,10.566
		L10.848,278.657C3.615,285.887,0,294.549,0,304.637c0,10.28,3.619,18.843,10.848,25.693l21.411,21.413
		c6.854,7.23,15.42,10.852,25.697,10.852c10.278,0,18.842-3.621,25.697-10.852L222.41,213.271L361.168,351.74
		c6.848,7.228,15.413,10.852,25.7,10.852c10.082,0,18.747-3.624,25.975-10.852l21.409-21.412
		c7.043-7.043,10.567-15.608,10.567-25.693C444.819,294.545,441.205,285.884,433.968,278.657z"/>
</g>
</symbol><symbol id="icon-check" viewBox="0 0 512 512">
<polygon fill="#446080" points="47.222,263.447 0,310.669 149.961,460.631 172.222,413.408 149.961,366.186 "/>
<polygon fill="#324860" points="464.778,51.369 149.961,366.186 149.961,460.631 512,98.592 "/>
</symbol><symbol id="icon-close" viewBox="0 0 20.514 20.512">
  <polygon points="20.513,1.414 19.099,0 10.256,8.842 1.414,0 0,1.414 8.842,10.256 0,19.098 1.414,20.512 10.256,11.67 19.099,20.512 20.513,19.098 11.671,10.256 "/>
</symbol><symbol id="icon-mail" viewBox="0 0 32 32"><path d="M28 5H4a4 4 0 0 0-4 4v13a4 4 0 0 0 4 4h24a4 4 0 0 0 4-4V9a4 4 0 0 0-4-4zM2 10.25l6.999 5.25L2 20.75v-10.5zM30 22c0 1.104-.898 2-2 2H4c-1.103 0-2-.896-2-2l7.832-5.875 4.368 3.277a3 3 0 0 0 3.599 0l4.369-3.277L30 22zm0-1.25l-7-5.25 7-5.25v10.5zm-12.801-2.148c-.35.263-.763.4-1.199.4s-.851-.139-1.2-.4L10.665 15.5l-.833-.625L2 9.001V9c0-1.103.897-2 2-2h24c1.102 0 2 .897 2 2l-12.801 9.602z"/></symbol><symbol id="icon-phone" viewBox="0 0 24.829 24.333"><path d="M17.321 24.333h-1.115c-4.904-.58-8.497-2.857-11.11-5.772C2.473 15.637.402 11.875 0 6.817V5.459c.091-.921.544-1.55 1.067-2.086.65-.666 1.63-1.522 2.522-1.553.659-.022 1.78.451 2.232 1.066.388.53.595 1.59.775 2.378.185.797.6 1.95.485 2.717-.176 1.196-1.764 1.703-2.231 2.572 1.551 3.721 4.089 6.456 7.472 8.345.847-.465 1.595-1.864 2.767-1.892.428-.012.972.209 1.406.34.477.143.891.326 1.311.484.705.266 1.957.621 2.378 1.213.433.61.681 1.608.581 2.231-.194 1.234-2.227 2.603-3.444 3.059zM12.529 1.528c5.949 0 10.771 4.822 10.771 10.771h1.529C24.829 5.507 19.323 0 12.529 0v1.528z"/><path d="M12.529 9.327v1.552a1.42 1.42 0 0 1 1.421 1.42h1.553a2.973 2.973 0 0 0-2.974-2.972zm0-3.081a6.054 6.054 0 0 1 6.056 6.054h1.588a7.642 7.642 0 0 0-7.644-7.641v1.587z"/></symbol><symbol id="icon-review-arrow-left" viewBox="0 0 21.706 41.719"><path fill="#ffffff" d="M2.045 20.859L21.458 1.446A.847.847 0 0 0 20.261.248L.248 20.261a.846.846 0 0 0 0 1.197l20.013 20.013a.843.843 0 0 0 1.198 0 .847.847 0 0 0 0-1.198L2.045 20.859z"/></symbol><symbol id="icon-review-arrow-right" viewBox="0 0 21.706 41.719"><path fill="#ffffff" d="M19.661 20.859L.248 1.446A.847.847 0 0 1 1.445.248L21.458 20.26c.33.33.33.867 0 1.197L1.445 41.471a.843.843 0 0 1-1.198 0 .847.847 0 0 1 0-1.198l19.414-19.414z"/></symbol><symbol id="logo-fb" viewBox="0 0 167.657 167.657">
<g>
	<path d="M83.829,0.349C37.532,0.349,0,37.881,0,84.178c0,41.523,30.222,75.911,69.848,82.57v-65.081H49.626
		v-23.42h20.222V60.978c0-20.037,12.238-30.956,30.115-30.956c8.562,0,15.92,0.638,18.056,0.919v20.944l-12.399,0.006
		c-9.72,0-11.594,4.618-11.594,11.397v14.947h23.193l-3.025,23.42H94.026v65.653c41.476-5.048,73.631-40.312,73.631-83.154
		C167.657,37.881,130.125,0.349,83.829,0.349z"/>
</g>
</symbol><symbol id="logo-inst" viewBox="0 0 89.758 89.758">
<g>
	<path d="M58.255,23.88H31.503c-4.27,0-7.744,3.474-7.744,7.744v26.752c0,4.27,3.474,7.745,7.744,7.745
		h26.752c4.27,0,7.745-3.474,7.745-7.745V31.624C66,27.354,62.526,23.88,58.255,23.88z M44.879,58.906
		c-7.667,0-13.905-6.238-13.905-13.906c0-7.667,6.238-13.905,13.905-13.905c7.668,0,13.906,6.238,13.906,13.905
		C58.785,52.667,52.546,58.906,44.879,58.906z M59.232,33.97c-1.815,0-3.291-1.476-3.291-3.29c0-1.814,1.476-3.29,3.291-3.29
		c1.814,0,3.29,1.476,3.29,3.29C62.522,32.494,61.046,33.97,59.232,33.97z"/>
	<path d="M44.879,36.971c-4.426,0-8.03,3.602-8.03,8.028c0,4.428,3.604,8.031,8.03,8.031
		c4.428,0,8.029-3.603,8.029-8.031C52.908,40.574,49.306,36.971,44.879,36.971z"/>
	<path d="M44.879,0C20.094,0,0,20.094,0,44.879c0,24.785,20.094,44.879,44.879,44.879
		c24.785,0,44.879-20.094,44.879-44.879C89.758,20.094,69.664,0,44.879,0z M71.875,58.376c0,7.511-6.109,13.62-13.62,13.62H31.503
		c-7.51,0-13.62-6.109-13.62-13.62V31.624c0-7.51,6.11-13.62,13.62-13.62h26.752c7.511,0,13.62,6.11,13.62,13.62V58.376z"/>
</g>
</symbol><symbol id="logo-instagram" viewBox="0 0 512 512">
	<path d="M256,49.471c67.266,0,75.233.257,101.8,1.469,24.562,1.121,37.9,5.224,46.778,8.674a78.052,78.052,0,0,1,28.966,18.845,78.052,78.052,0,0,1,18.845,28.966c3.45,8.877,7.554,22.216,8.674,46.778,1.212,26.565,1.469,34.532,1.469,101.8s-0.257,75.233-1.469,101.8c-1.121,24.562-5.225,37.9-8.674,46.778a83.427,83.427,0,0,1-47.811,47.811c-8.877,3.45-22.216,7.554-46.778,8.674-26.56,1.212-34.527,1.469-101.8,1.469s-75.237-.257-101.8-1.469c-24.562-1.121-37.9-5.225-46.778-8.674a78.051,78.051,0,0,1-28.966-18.845,78.053,78.053,0,0,1-18.845-28.966c-3.45-8.877-7.554-22.216-8.674-46.778-1.212-26.564-1.469-34.532-1.469-101.8s0.257-75.233,1.469-101.8c1.121-24.562,5.224-37.9,8.674-46.778A78.052,78.052,0,0,1,78.458,78.458a78.053,78.053,0,0,1,28.966-18.845c8.877-3.45,22.216-7.554,46.778-8.674,26.565-1.212,34.532-1.469,101.8-1.469m0-45.391c-68.418,0-77,.29-103.866,1.516-26.815,1.224-45.127,5.482-61.151,11.71a123.488,123.488,0,0,0-44.62,29.057A123.488,123.488,0,0,0,17.3,90.982C11.077,107.007,6.819,125.319,5.6,152.134,4.369,179,4.079,187.582,4.079,256S4.369,333,5.6,359.866c1.224,26.815,5.482,45.127,11.71,61.151a123.489,123.489,0,0,0,29.057,44.62,123.486,123.486,0,0,0,44.62,29.057c16.025,6.228,34.337,10.486,61.151,11.71,26.87,1.226,35.449,1.516,103.866,1.516s77-.29,103.866-1.516c26.815-1.224,45.127-5.482,61.151-11.71a128.817,128.817,0,0,0,73.677-73.677c6.228-16.025,10.486-34.337,11.71-61.151,1.226-26.87,1.516-35.449,1.516-103.866s-0.29-77-1.516-103.866c-1.224-26.815-5.482-45.127-11.71-61.151a123.486,123.486,0,0,0-29.057-44.62A123.487,123.487,0,0,0,421.018,17.3C404.993,11.077,386.681,6.819,359.866,5.6,333,4.369,324.418,4.079,256,4.079h0Z"/>
	<path d="M256,126.635A129.365,129.365,0,1,0,385.365,256,129.365,129.365,0,0,0,256,126.635Zm0,213.338A83.973,83.973,0,1,1,339.974,256,83.974,83.974,0,0,1,256,339.973Z"/>
	<circle cx="390.476" cy="121.524" r="30.23"/>
</symbol><symbol id="logo-odnok" viewBox="0 0 97.75 97.75">
<g>
	<g>
		<path d="M48.921,40.507c4.667-0.017,8.384-3.766,8.367-8.443c-0.017-4.679-3.742-8.402-8.411-8.406
			c-4.708-0.005-8.468,3.787-8.432,8.508C40.48,36.826,44.239,40.524,48.921,40.507z"/>
		<path d="M48.875,0C21.882,0,0,21.883,0,48.875S21.882,97.75,48.875,97.75S97.75,75.867,97.75,48.875S75.868,0,48.875,0z
			 M48.945,14.863c9.52,0.026,17.161,7.813,17.112,17.438c-0.048,9.403-7.814,17.024-17.318,16.992
			c-9.407-0.032-17.122-7.831-17.066-17.253C31.726,22.515,39.445,14.837,48.945,14.863z M68.227,56.057
			c-2.105,2.161-4.639,3.725-7.453,4.816c-2.66,1.031-5.575,1.55-8.461,1.896c0.437,0.474,0.642,0.707,0.914,0.979
			c3.916,3.937,7.851,7.854,11.754,11.802c1.33,1.346,1.607,3.014,0.875,4.577c-0.799,1.71-2.592,2.834-4.351,2.713
			c-1.114-0.077-1.983-0.63-2.754-1.407c-2.956-2.974-5.968-5.895-8.862-8.925c-0.845-0.882-1.249-0.714-1.994,0.052
			c-2.973,3.062-5.995,6.075-9.034,9.072c-1.365,1.346-2.989,1.59-4.573,0.82c-1.683-0.814-2.753-2.533-2.671-4.262
			c0.058-1.166,0.632-2.06,1.434-2.858c3.877-3.869,7.742-7.75,11.608-11.628c0.257-0.257,0.495-0.53,0.868-0.93
			c-5.273-0.551-10.028-1.849-14.099-5.032c-0.506-0.396-1.027-0.778-1.487-1.222c-1.783-1.711-1.962-3.672-0.553-5.69
			c1.207-1.728,3.231-2.19,5.336-1.197c0.408,0.191,0.796,0.433,1.168,0.689c7.586,5.213,18.008,5.356,25.624,0.233
			c0.754-0.576,1.561-1.05,2.496-1.289c1.816-0.468,3.512,0.201,4.486,1.791C69.613,52.874,69.6,54.646,68.227,56.057z"/>
	</g>
</g>
</symbol><symbol id="logo-vk" viewBox="0 0 112.196 112.196">
<g>
  <g>
    <circle id="XMLID_11_" cx="56.098" cy="56.098" r="56.098"/>
  </g>

  <path style="fill-rule:evenodd;clip-rule:evenodd; fill:#c3c3c3;" d="M53.979,80.702h4.403c0,0,1.33-0.146,2.009-0.878
    c0.625-0.672,0.605-1.934,0.605-1.934s-0.086-5.908,2.656-6.778c2.703-0.857,6.174,5.71,9.853,8.235
    c2.782,1.911,4.896,1.492,4.896,1.492l9.837-0.137c0,0,5.146-0.317,2.706-4.363c-0.2-0.331-1.421-2.993-7.314-8.463
    c-6.168-5.725-5.342-4.799,2.088-14.702c4.525-6.031,6.334-9.713,5.769-11.29c-0.539-1.502-3.867-1.105-3.867-1.105l-11.076,0.069
    c0,0-0.821-0.112-1.43,0.252c-0.595,0.357-0.978,1.189-0.978,1.189s-1.753,4.667-4.091,8.636c-4.932,8.375-6.904,8.817-7.71,8.297
    c-1.875-1.212-1.407-4.869-1.407-7.467c0-8.116,1.231-11.5-2.397-12.376c-1.204-0.291-2.09-0.483-5.169-0.514
    c-3.952-0.041-7.297,0.012-9.191,0.94c-1.26,0.617-2.232,1.992-1.64,2.071c0.732,0.098,2.39,0.447,3.269,1.644
    c1.135,1.544,1.095,5.012,1.095,5.012s0.652,9.554-1.523,10.741c-1.493,0.814-3.541-0.848-7.938-8.446
    c-2.253-3.892-3.954-8.194-3.954-8.194s-0.328-0.804-0.913-1.234c-0.71-0.521-1.702-0.687-1.702-0.687l-10.525,0.069
    c0,0-1.58,0.044-2.16,0.731c-0.516,0.611-0.041,1.875-0.041,1.875s8.24,19.278,17.57,28.993
    C44.264,81.287,53.979,80.702,53.979,80.702L53.979,80.702z"/>

</g>
</symbol></svg>